<?xml version="1.0" encoding="UTF-8"?>
<!DOCTYPE svg PUBLIC "-//W3C//DTD SVG 1.1//EN" "http://www.w3.org/Graphics/SVG/1.1/DTD/svg11.dtd">
<svg version="1.2" width="200mm" height="200mm" viewBox="0 0 20000 20000" preserveAspectRatio="xMidYMid" fill-rule="evenodd" stroke-width="28.222" stroke-linejoin="round" xmlns="http://www.w3.org/2000/svg" xmlns:ooo="http://xml.openoffice.org/svg/export" xmlns:xlink="http://www.w3.org/1999/xlink" xmlns:presentation="http://sun.com/xmlns/staroffice/presentation" xmlns:smil="http://www.w3.org/2001/SMIL20/" xmlns:anim="urn:oasis:names:tc:opendocument:xmlns:animation:1.0" xml:space="preserve">
 <defs class="ClipPathGroup">
  <clipPath id="presentation_clip_path" clipPathUnits="userSpaceOnUse">
   <rect x="0" y="0" width="20000" height="20000"/>
  </clipPath>
  <clipPath id="presentation_clip_path_shrink" clipPathUnits="userSpaceOnUse">
   <rect x="20" y="20" width="19960" height="19960"/>
  </clipPath>
 </defs>
 <defs class="TextShapeIndex">
  <g ooo:slide="id1" ooo:id-list="id3 id4 id5 id6 id7 id8 id9 id10 id11 id12"/>
 </defs>
 <defs class="EmbeddedBulletChars">
  <g id="bullet-char-template-57356" transform="scale(0.00048828125,-0.00048828125)">
   <path d="M 580,1141 L 1163,571 580,0 -4,571 580,1141 Z"/>
  </g>
  <g id="bullet-char-template-57354" transform="scale(0.00048828125,-0.00048828125)">
   <path d="M 8,1128 L 1137,1128 1137,0 8,0 8,1128 Z"/>
  </g>
  <g id="bullet-char-template-10146" transform="scale(0.00048828125,-0.00048828125)">
   <path d="M 174,0 L 602,739 174,1481 1456,739 174,0 Z M 1358,739 L 309,1346 659,739 1358,739 Z"/>
  </g>
  <g id="bullet-char-template-10132" transform="scale(0.00048828125,-0.00048828125)">
   <path d="M 2015,739 L 1276,0 717,0 1260,543 174,543 174,936 1260,936 717,1481 1274,1481 2015,739 Z"/>
  </g>
  <g id="bullet-char-template-10007" transform="scale(0.00048828125,-0.00048828125)">
   <path d="M 0,-2 C -7,14 -16,27 -25,37 L 356,567 C 262,823 215,952 215,954 215,979 228,992 255,992 264,992 276,990 289,987 310,991 331,999 354,1012 L 381,999 492,748 772,1049 836,1024 860,1049 C 881,1039 901,1025 922,1006 886,937 835,863 770,784 769,783 710,716 594,584 L 774,223 C 774,196 753,168 711,139 L 727,119 C 717,90 699,76 672,76 641,76 570,178 457,381 L 164,-76 C 142,-110 111,-127 72,-127 30,-127 9,-110 8,-76 1,-67 -2,-52 -2,-32 -2,-23 -1,-13 0,-2 Z"/>
  </g>
  <g id="bullet-char-template-10004" transform="scale(0.00048828125,-0.00048828125)">
   <path d="M 285,-33 C 182,-33 111,30 74,156 52,228 41,333 41,471 41,549 55,616 82,672 116,743 169,778 240,778 293,778 328,747 346,684 L 369,508 C 377,444 397,411 428,410 L 1163,1116 C 1174,1127 1196,1133 1229,1133 1271,1133 1292,1118 1292,1087 L 1292,965 C 1292,929 1282,901 1262,881 L 442,47 C 390,-6 338,-33 285,-33 Z"/>
  </g>
  <g id="bullet-char-template-9679" transform="scale(0.00048828125,-0.00048828125)">
   <path d="M 813,0 C 632,0 489,54 383,161 276,268 223,411 223,592 223,773 276,916 383,1023 489,1130 632,1184 813,1184 992,1184 1136,1130 1245,1023 1353,916 1407,772 1407,592 1407,412 1353,268 1245,161 1136,54 992,0 813,0 Z"/>
  </g>
  <g id="bullet-char-template-8226" transform="scale(0.00048828125,-0.00048828125)">
   <path d="M 346,457 C 273,457 209,483 155,535 101,586 74,649 74,723 74,796 101,859 155,911 209,963 273,989 346,989 419,989 480,963 531,910 582,859 608,796 608,723 608,648 583,586 532,535 482,483 420,457 346,457 Z"/>
  </g>
  <g id="bullet-char-template-8211" transform="scale(0.00048828125,-0.00048828125)">
   <path d="M -4,459 L 1135,459 1135,606 -4,606 -4,459 Z"/>
  </g>
  <g id="bullet-char-template-61548" transform="scale(0.00048828125,-0.00048828125)">
   <path d="M 173,740 C 173,903 231,1043 346,1159 462,1274 601,1332 765,1332 928,1332 1067,1274 1183,1159 1299,1043 1357,903 1357,740 1357,577 1299,437 1183,322 1067,206 928,148 765,148 601,148 462,206 346,322 231,437 173,577 173,740 Z"/>
  </g>
 </defs>
 <defs class="TextEmbeddedBitmaps"/>
 <g>
  <g id="id2" class="Master_Slide">
   <g id="bg-id2" class="Background"/>
   <g id="bo-id2" class="BackgroundObjects"/>
  </g>
 </g>
 <g class="SlideGroup">
  <g>
   <g id="container-id1">
    <g id="id1" class="Slide" clip-path="url(#presentation_clip_path)">
     <g class="Page">
      <g class="com.sun.star.drawing.CustomShape">
       <g id="id3">
        <rect class="BoundingBox" stroke="none" fill="none" x="1399" y="799" width="5803" height="5803"/>
        <path fill="rgb(255,255,255)" stroke="none" d="M 4300,800 C 4834,800 5288,921 5750,1188 6213,1455 6545,1787 6812,2250 7079,2712 7201,3166 7201,3700 7201,4234 7079,4688 6812,5150 6545,5613 6213,5945 5750,6212 5288,6479 4834,6601 4300,6601 3766,6601 3312,6479 2850,6212 2387,5945 2055,5613 1788,5150 1521,4688 1400,4234 1400,3700 1399,3166 1521,2712 1788,2250 2055,1787 2387,1455 2850,1188 3312,921 3766,800 4300,800 L 4300,800 Z"/>
        <path fill="none" stroke="rgb(100,146,170)" d="M 4300,800 C 4834,800 5288,921 5750,1188 6213,1455 6545,1787 6812,2250 7079,2712 7201,3166 7201,3700 7201,4234 7079,4688 6812,5150 6545,5613 6213,5945 5750,6212 5288,6479 4834,6601 4300,6601 3766,6601 3312,6479 2850,6212 2387,5945 2055,5613 1788,5150 1521,4688 1400,4234 1400,3700 1399,3166 1521,2712 1788,2250 2055,1787 2387,1455 2850,1188 3312,921 3766,800 4300,800 L 4300,800 Z"/>
       </g>
      </g>
      <g class="com.sun.star.drawing.CustomShape">
       <g id="id4">
        <rect class="BoundingBox" stroke="none" fill="none" x="14299" y="1599" width="4303" height="4303"/>
        <path fill="rgb(0,0,0)" stroke="none" d="M 16450,5900 L 14300,5900 14300,1600 18600,1600 18600,5900 16450,5900 Z"/>
        <path fill="none" stroke="rgb(100,146,170)" d="M 16450,5900 L 14300,5900 14300,1600 18600,1600 18600,5900 16450,5900 Z"/>
       </g>
      </g>
      <g class="com.sun.star.drawing.LineShape">
       <g id="id5">
        <rect class="BoundingBox" stroke="none" fill="none" x="7200" y="3600" width="7102" height="301"/>
        <path fill="none" stroke="rgb(100,146,170)" d="M 7480,3750 L 13871,3750"/>
        <path fill="rgb(100,146,170)" stroke="none" d="M 7497,3777 L 7489,3805 7475,3832 7456,3856 7432,3875 7405,3889 7377,3897 7350,3900 7323,3897 7294,3889 7267,3875 7244,3856 7225,3832 7211,3805 7202,3777 7200,3749 7202,3723 7211,3694 7225,3668 7244,3644 7267,3625 7294,3611 7323,3603 7350,3600 7377,3603 7405,3611 7432,3625 7456,3644 7475,3668 7489,3694 7497,3723 7500,3749 7497,3777 Z"/>
        <path fill="rgb(100,146,170)" stroke="none" d="M 14301,3750 L 13851,3600 13851,3900 14301,3750 Z"/>
       </g>
      </g>
      <g class="com.sun.star.drawing.CustomShape">
       <g id="id6">
        <rect class="BoundingBox" stroke="none" fill="none" x="7849" y="7699" width="6503" height="5604"/>
        <path fill="rgb(100,146,170)" stroke="none" d="M 11100,7700 L 14350,13301 7850,13301 11100,7700 Z"/>
        <path fill="none" stroke="rgb(100,146,170)" d="M 11100,7700 L 14350,13301 7850,13301 11100,7700 Z"/>
       </g>
      </g>
      <g class="com.sun.star.drawing.ConnectorShape">
       <g id="id7">
        <rect class="BoundingBox" stroke="none" fill="none" x="12725" y="5899" width="3727" height="4734"/>
        <path fill="none" stroke="rgb(100,146,170)" d="M 16450,5900 C 16450,8967 15353,10312 13156,10484"/>
        <path fill="rgb(100,146,170)" stroke="none" d="M 12725,10500 L 13181,10632 13169,10332 12725,10500 Z"/>
       </g>
      </g>
      <g class="com.sun.star.drawing.CustomShape">
       <g id="id8">
        <rect class="BoundingBox" stroke="none" fill="none" x="3099" y="14899" width="4004" height="4104"/>
        <path fill="rgb(255,56,56)" stroke="none" d="M 5100,14900 C 4009,14900 3100,15133 3100,15412 L 3100,18488 C 3100,18767 4009,19001 5100,19001 6191,19001 7101,18767 7101,18488 L 7101,15412 C 7101,15133 6191,14900 5100,14900 L 5100,14900 Z"/>
        <path fill="none" stroke="rgb(100,146,170)" d="M 5100,14900 C 4009,14900 3100,15133 3100,15412 L 3100,18488 C 3100,18767 4009,19001 5100,19001 6191,19001 7101,18767 7101,18488 L 7101,15412 C 7101,15133 6191,14900 5100,14900 Z"/>
        <path fill="rgb(255,136,136)" stroke="none" d="M 5100,14900 C 4009,14900 3100,15133 3100,15412 3100,15692 4009,15925 5100,15925 6191,15925 7101,15692 7101,15412 7101,15133 6191,14900 5100,14900 L 5100,14900 Z"/>
        <path fill="none" stroke="rgb(100,146,170)" d="M 5100,14900 C 4009,14900 3100,15133 3100,15412 3100,15692 4009,15925 5100,15925 6191,15925 7101,15692 7101,15412 7101,15133 6191,14900 5100,14900 Z"/>
       </g>
      </g>
      <g class="com.sun.star.drawing.CustomShape">
       <g id="id9">
        <rect class="BoundingBox" stroke="none" fill="none" x="13599" y="14599" width="4603" height="4504"/>
        <path fill="rgb(222,230,239)" stroke="none" d="M 13600,19101 L 13600,15725 14725,14600 18200,14600 18200,17975 17075,19101 13600,19101 Z"/>
        <path fill="none" stroke="rgb(100,146,170)" d="M 13600,19101 L 13600,15725 14725,14600 18200,14600 18200,17975 17075,19101 13600,19101 Z"/>
        <path fill="rgb(228,235,242)" stroke="none" d="M 13600,15725 L 14725,14600 18200,14600 17075,15725 13600,15725 Z"/>
        <path fill="none" stroke="rgb(100,146,170)" d="M 13600,15725 L 14725,14600 18200,14600 17075,15725 13600,15725 Z"/>
        <path fill="rgb(178,184,191)" stroke="none" d="M 17075,19101 L 17075,15725 18200,14600 18200,17975 17075,19101 Z"/>
        <path fill="none" stroke="rgb(100,146,170)" d="M 17075,19101 L 17075,15725 18200,14600 18200,17975 17075,19101 Z"/>
       </g>
      </g>
      <g class="com.sun.star.drawing.ConnectorShape">
       <g id="id10">
        <rect class="BoundingBox" stroke="none" fill="none" x="1749" y="10499" width="7728" height="6452"/>
        <path fill="none" stroke="rgb(100,146,170)" d="M 9475,10500 C -839,10500 1813,15615 2787,16735"/>
        <path fill="rgb(100,146,170)" stroke="none" d="M 3100,16950 L 2818,16569 2646,16814 3100,16950 Z"/>
       </g>
      </g>
      <g class="com.sun.star.drawing.ConnectorShape">
       <g id="id11">
        <rect class="BoundingBox" stroke="none" fill="none" x="4299" y="6599" width="9302" height="10959"/>
        <path fill="none" stroke="rgb(100,146,170)" d="M 4300,6600 C 4300,13809 7257,17243 13171,17407"/>
        <path fill="rgb(100,146,170)" stroke="none" d="M 13600,17413 L 13152,17257 13148,17557 13600,17413 Z"/>
       </g>
      </g>
      <g class="com.sun.star.drawing.ConnectorShape">
       <g id="id12">
        <rect class="BoundingBox" stroke="none" fill="none" x="6351" y="1499" width="10114" height="13103"/>
        <path fill="none" stroke="rgb(100,146,170)" d="M 16463,14600 L 16463,14099 7701,1649 6781,1649"/>
        <path fill="rgb(100,146,170)" stroke="none" d="M 6351,1649 L 6801,1799 6801,1499 6351,1649 Z"/>
       </g>
      </g>
     </g>
    </g>
   </g>
  </g>
 </g>
</svg>