<?xml version="1.0" encoding="UTF-8"?>
<!DOCTYPE svg PUBLIC "-//W3C//DTD SVG 1.1//EN" "http://www.w3.org/Graphics/SVG/1.1/DTD/svg11.dtd">
<svg version="1.2" width="200mm" height="200mm" viewBox="0 0 20000 20000" preserveAspectRatio="xMidYMid" fill-rule="evenodd" stroke-width="28.222" stroke-linejoin="round" xmlns="http://www.w3.org/2000/svg" xmlns:ooo="http://xml.openoffice.org/svg/export" xmlns:xlink="http://www.w3.org/1999/xlink" xmlns:presentation="http://sun.com/xmlns/staroffice/presentation" xmlns:smil="http://www.w3.org/2001/SMIL20/" xmlns:anim="urn:oasis:names:tc:opendocument:xmlns:animation:1.0" xml:space="preserve">
 <defs class="ClipPathGroup">
  <clipPath id="presentation_clip_path" clipPathUnits="userSpaceOnUse">
   <rect x="0" y="0" width="20000" height="20000"/>
  </clipPath>
  <clipPath id="presentation_clip_path_shrink" clipPathUnits="userSpaceOnUse">
   <rect x="20" y="20" width="19960" height="19960"/>
  </clipPath>
 </defs>
 <defs class="TextShapeIndex">
  <g ooo:slide="id1" ooo:id-list="id3 id4 id5 id6 id7 id8 id9 id10 id11 id12"/>
 </defs>
 <defs class="EmbeddedBulletChars">
  <g id="bullet-char-template-57356" transform="scale(0.00048828125,-0.00048828125)">
   <path d="M 580,1141 L 1163,571 580,0 -4,571 580,1141 Z"/>
  </g>
  <g id="bullet-char-template-57354" transform="scale(0.00048828125,-0.00048828125)">
   <path d="M 8,1128 L 1137,1128 1137,0 8,0 8,1128 Z"/>
  </g>
  <g id="bullet-char-template-10146" transform="scale(0.00048828125,-0.00048828125)">
   <path d="M 174,0 L 602,739 174,1481 1456,739 174,0 Z M 1358,739 L 309,1346 659,739 1358,739 Z"/>
  </g>
  <g id="bullet-char-template-10132" transform="scale(0.00048828125,-0.00048828125)">
   <path d="M 2015,739 L 1276,0 717,0 1260,543 174,543 174,936 1260,936 717,1481 1274,1481 2015,739 Z"/>
  </g>
  <g id="bullet-char-template-10007" transform="scale(0.00048828125,-0.00048828125)">
   <path d="M 0,-2 C -7,14 -16,27 -25,37 L 356,567 C 262,823 215,952 215,954 215,979 228,992 255,992 264,992 276,990 289,987 310,991 331,999 354,1012 L 381,999 492,748 772,1049 836,1024 860,1049 C 881,1039 901,1025 922,1006 886,937 835,863 770,784 769,783 710,716 594,584 L 774,223 C 774,196 753,168 711,139 L 727,119 C 717,90 699,76 672,76 641,76 570,178 457,381 L 164,-76 C 142,-110 111,-127 72,-127 30,-127 9,-110 8,-76 1,-67 -2,-52 -2,-32 -2,-23 -1,-13 0,-2 Z"/>
  </g>
  <g id="bullet-char-template-10004" transform="scale(0.00048828125,-0.00048828125)">
   <path d="M 285,-33 C 182,-33 111,30 74,156 52,228 41,333 41,471 41,549 55,616 82,672 116,743 169,778 240,778 293,778 328,747 346,684 L 369,508 C 377,444 397,411 428,410 L 1163,1116 C 1174,1127 1196,1133 1229,1133 1271,1133 1292,1118 1292,1087 L 1292,965 C 1292,929 1282,901 1262,881 L 442,47 C 390,-6 338,-33 285,-33 Z"/>
  </g>
  <g id="bullet-char-template-9679" transform="scale(0.00048828125,-0.00048828125)">
   <path d="M 813,0 C 632,0 489,54 383,161 276,268 223,411 223,592 223,773 276,916 383,1023 489,1130 632,1184 813,1184 992,1184 1136,1130 1245,1023 1353,916 1407,772 1407,592 1407,412 1353,268 1245,161 1136,54 992,0 813,0 Z"/>
  </g>
  <g id="bullet-char-template-8226" transform="scale(0.00048828125,-0.00048828125)">
   <path d="M 346,457 C 273,457 209,483 155,535 101,586 74,649 74,723 74,796 101,859 155,911 209,963 273,989 346,989 419,989 480,963 531,910 582,859 608,796 608,723 608,648 583,586 532,535 482,483 420,457 346,457 Z"/>
  </g>
  <g id="bullet-char-template-8211" transform="scale(0.00048828125,-0.00048828125)">
   <path d="M -4,459 L 1135,459 1135,606 -4,606 -4,459 Z"/>
  </g>
  <g id="bullet-char-template-61548" transform="scale(0.00048828125,-0.00048828125)">
   <path d="M 173,740 C 173,903 231,1043 346,1159 462,1274 601,1332 765,1332 928,1332 1067,1274 1183,1159 1299,1043 1357,903 1357,740 1357,577 1299,437 1183,322 1067,206 928,148 765,148 601,148 462,206 346,322 231,437 173,577 173,740 Z"/>
  </g>
 </defs>
 <defs class="TextEmbeddedBitmaps"/>
 <g>
  <g id="id2" class="Master_Slide">
   <g id="bg-id2" class="Background"/>
   <g id="bo-id2" class="BackgroundObjects"/>
  </g>
 </g>
 <g class="SlideGroup">
  <g>
   <g id="container-id1">
    <g id="id1" class="Slide" clip-path="url(#presentation_clip_path)">
     <g class="Page">
      <g class="com.sun.star.drawing.CustomShape">
       <g id="id3">
        <rect class="BoundingBox" stroke="none" fill="none" x="299" y="299" width="5803" height="5803"/>
        <path fill="rgb(255,255,255)" stroke="none" d="M 3200,300 C 3734,300 4188,421 4650,688 5113,955 5445,1287 5712,1750 5979,2212 6101,2666 6101,3200 6101,3734 5979,4188 5712,4650 5445,5113 5113,5445 4650,5712 4188,5979 3734,6101 3200,6101 2666,6101 2212,5979 1750,5712 1287,5445 955,5113 688,4650 421,4188 300,3734 300,3200 299,2666 421,2212 688,1750 955,1287 1287,955 1750,688 2212,421 2666,300 3200,300 L 3200,300 Z"/>
        <path fill="none" stroke="rgb(100,146,170)" d="M 3200,300 C 3734,300 4188,421 4650,688 5113,955 5445,1287 5712,1750 5979,2212 6101,2666 6101,3200 6101,3734 5979,4188 5712,4650 5445,5113 5113,5445 4650,5712 4188,5979 3734,6101 3200,6101 2666,6101 2212,5979 1750,5712 1287,5445 955,5113 688,4650 421,4188 300,3734 300,3200 299,2666 421,2212 688,1750 955,1287 1287,955 1750,688 2212,421 2666,300 3200,300 L 3200,300 Z"/>
       </g>
      </g>
      <g class="com.sun.star.drawing.CustomShape">
       <g id="id4">
        <rect class="BoundingBox" stroke="none" fill="none" x="13199" y="1099" width="4303" height="4303"/>
        <path fill="rgb(0,0,0)" stroke="none" d="M 15350,5400 L 13200,5400 13200,1100 17500,1100 17500,5400 15350,5400 Z"/>
        <path fill="none" stroke="rgb(100,146,170)" d="M 15350,5400 L 13200,5400 13200,1100 17500,1100 17500,5400 15350,5400 Z"/>
       </g>
      </g>
      <g class="com.sun.star.drawing.LineShape">
       <g id="id5">
        <rect class="BoundingBox" stroke="none" fill="none" x="6099" y="3099" width="7103" height="303"/>
        <path fill="none" stroke="rgb(100,146,170)" d="M 6380,3250 L 12770,3250"/>
        <path fill="rgb(100,146,170)" stroke="none" d="M 6396,3278 L 6389,3305 6375,3332 6356,3356 6331,3376 6304,3389 6277,3397 6249,3400 6222,3397 6194,3389 6167,3376 6143,3356 6124,3332 6111,3305 6102,3278 6100,3250 6102,3223 6111,3195 6124,3169 6143,3144 6167,3125 6194,3111 6222,3104 6249,3100 6277,3104 6304,3111 6331,3125 6356,3144 6375,3169 6389,3195 6396,3223 6400,3250 6396,3278 Z"/>
        <path fill="rgb(100,146,170)" stroke="none" d="M 13200,3250 L 12750,3100 12750,3400 13200,3250 Z"/>
       </g>
      </g>
      <g class="com.sun.star.drawing.CustomShape">
       <g id="id6">
        <rect class="BoundingBox" stroke="none" fill="none" x="6749" y="7199" width="6503" height="5604"/>
        <path fill="rgb(100,146,170)" stroke="none" d="M 10000,7200 L 13250,12801 6750,12801 10000,7200 Z"/>
        <path fill="none" stroke="rgb(100,146,170)" d="M 10000,7200 L 13250,12801 6750,12801 10000,7200 Z"/>
       </g>
      </g>
      <g class="com.sun.star.drawing.ConnectorShape">
       <g id="id7">
        <rect class="BoundingBox" stroke="none" fill="none" x="11625" y="5399" width="3727" height="4734"/>
        <path fill="none" stroke="rgb(100,146,170)" d="M 15350,5400 C 15350,8467 14253,9812 12056,9984"/>
        <path fill="rgb(100,146,170)" stroke="none" d="M 11625,10000 L 12081,10132 12069,9832 11625,10000 Z"/>
       </g>
      </g>
      <g class="com.sun.star.drawing.CustomShape">
       <g id="id8">
        <rect class="BoundingBox" stroke="none" fill="none" x="1999" y="14399" width="4004" height="4104"/>
        <path fill="rgb(255,56,56)" stroke="none" d="M 4000,14400 C 2909,14400 2000,14633 2000,14912 L 2000,17988 C 2000,18267 2909,18501 4000,18501 5091,18501 6001,18267 6001,17988 L 6001,14912 C 6001,14633 5091,14400 4000,14400 L 4000,14400 Z"/>
        <path fill="none" stroke="rgb(100,146,170)" d="M 4000,14400 C 2909,14400 2000,14633 2000,14912 L 2000,17988 C 2000,18267 2909,18501 4000,18501 5091,18501 6001,18267 6001,17988 L 6001,14912 C 6001,14633 5091,14400 4000,14400 Z"/>
        <path fill="rgb(255,136,136)" stroke="none" d="M 4000,14400 C 2909,14400 2000,14633 2000,14912 2000,15192 2909,15425 4000,15425 5091,15425 6001,15192 6001,14912 6001,14633 5091,14400 4000,14400 L 4000,14400 Z"/>
        <path fill="none" stroke="rgb(100,146,170)" d="M 4000,14400 C 2909,14400 2000,14633 2000,14912 2000,15192 2909,15425 4000,15425 5091,15425 6001,15192 6001,14912 6001,14633 5091,14400 4000,14400 Z"/>
       </g>
      </g>
      <g class="com.sun.star.drawing.CustomShape">
       <g id="id9">
        <rect class="BoundingBox" stroke="none" fill="none" x="12499" y="14099" width="4603" height="4504"/>
        <path fill="rgb(222,230,239)" stroke="none" d="M 12500,18601 L 12500,15225 13625,14100 17100,14100 17100,17475 15975,18601 12500,18601 Z"/>
        <path fill="none" stroke="rgb(100,146,170)" d="M 12500,18601 L 12500,15225 13625,14100 17100,14100 17100,17475 15975,18601 12500,18601 Z"/>
        <path fill="rgb(228,235,242)" stroke="none" d="M 12500,15225 L 13625,14100 17100,14100 15975,15225 12500,15225 Z"/>
        <path fill="none" stroke="rgb(100,146,170)" d="M 12500,15225 L 13625,14100 17100,14100 15975,15225 12500,15225 Z"/>
        <path fill="rgb(178,184,191)" stroke="none" d="M 15975,18601 L 15975,15225 17100,14100 17100,17475 15975,18601 Z"/>
        <path fill="none" stroke="rgb(100,146,170)" d="M 15975,18601 L 15975,15225 17100,14100 17100,17475 15975,18601 Z"/>
       </g>
      </g>
      <g class="com.sun.star.drawing.ConnectorShape">
       <g id="id10">
        <rect class="BoundingBox" stroke="none" fill="none" x="649" y="9999" width="7728" height="6452"/>
        <path fill="none" stroke="rgb(100,146,170)" d="M 8375,10000 C -1939,10000 713,15115 1687,16235"/>
        <path fill="rgb(100,146,170)" stroke="none" d="M 2000,16450 L 1718,16069 1546,16314 2000,16450 Z"/>
       </g>
      </g>
      <g class="com.sun.star.drawing.ConnectorShape">
       <g id="id11">
        <rect class="BoundingBox" stroke="none" fill="none" x="3199" y="6099" width="9302" height="10959"/>
        <path fill="none" stroke="rgb(100,146,170)" d="M 3200,6100 C 3200,13309 6157,16743 12071,16907"/>
        <path fill="rgb(100,146,170)" stroke="none" d="M 12500,16913 L 12052,16757 12048,17057 12500,16913 Z"/>
       </g>
      </g>
      <g class="com.sun.star.drawing.ConnectorShape">
       <g id="id12">
        <rect class="BoundingBox" stroke="none" fill="none" x="5251" y="999" width="10114" height="13103"/>
        <path fill="none" stroke="rgb(100,146,170)" d="M 15363,14100 L 15363,13599 6601,1149 5681,1149"/>
        <path fill="rgb(100,146,170)" stroke="none" d="M 5251,1149 L 5701,1299 5701,999 5251,1149 Z"/>
       </g>
      </g>
     </g>
    </g>
   </g>
  </g>
 </g>
</svg>